<?xml version="1.0" encoding="UTF-8"?>
<svg id="Capa_1" data-name="Capa 1" xmlns="http://www.w3.org/2000/svg" viewBox="0 0 630.63 618.15">
  <defs>
    <style>
      .cls-1 {
        fill: #fff;
      }
    </style>
  </defs>
  <path class="cls-1" d="M315.92,0c42.1,.16,86.43,4.92,128.94,21.06,67.66,25.69,114.06,72.3,138.29,140.67,11.97,33.78,16.67,68.8,17.25,104.46,.07,4.6,1.42,7.29,5.44,9.98,14.06,9.42,22.92,23.04,23.67,39.78,1.16,25.75,2.04,51.64-.62,77.37-2.25,21.84-24.08,42.49-46.03,45.01-14.8,1.7-29.63,.63-44.44,.85-3.43,.05-5.29,.81-6.57,4.28-11.68,31.52-28.62,60.03-50.52,85.47-33.03,38.38-72.74,67.2-121.5,82.33-36.66,11.37-72.81,8.34-107.82-6.63-73.69-31.5-123.44-86.2-153.1-159.92-1.7-4.22-3.65-5.58-8.22-5.59-14.48-.01-28.97,.87-43.44-.8-22.05-2.54-43.43-23.5-46.03-45.64-2.22-18.93-.66-37.94-.97-56.91-.14-8.3-.7-16.64,1.12-24.89,3.35-15.19,11.27-27.26,24.42-35.64,2.89-1.84,3.93-3.87,3.99-7.21,.57-33.1,4.35-65.75,14.39-97.46C67.48,96.95,115.52,46.87,187.87,20.12,228.21,5.2,270.25,.42,315.92,0Z"/>
  <path d="M226.67,179.67c3.48,2.31,4.91,5.22,6.63,7.78,22.38,33.24,52.82,55.64,90.58,68.75,19.3,6.7,39.16,11.78,58.02,19.79,6.29,2.67,12.24,5.89,18.76,10.46-3.05-12.84-8.81-23.17-17.02-33.27,15.93,1.61,30.71,4.25,45.32,7.88,23.52,5.84,46.19,13.82,66.59,27.25,4.3,2.83,8.24,6.2,12.39,9.25,1.45,1.07,2.11,2.34,2.27,4.17,3.76,42.75,1.68,84.87-13.56,125.54-14.58,38.92-37.39,72.23-68.53,99.78-24.22,21.43-51.32,37.88-82.47,47.2-22.59,6.76-44.98,5.93-67.2-1.86-46.62-16.34-83.24-45.87-112.57-85.06-1.38-1.84-2.66-3.76-4.81-6.81,5.3,2.16,9.33,3.91,13.43,5.46,25.95,9.8,53.05,13.81,80.51,15.96,1.98,.15,3.78,.11,5.15,2.2,7.98,12.24,20.14,18.11,33.83,21,18.3,3.87,35.92,1.56,51.84-8.59,11.78-7.51,19.34-17.9,17.14-32.89-1.3-8.88-6.59-15.4-13.35-20.95-22.49-18.45-64.37-17.04-84.24,3.67-4.92,5.13-9.2,6.23-15.8,5.55-25.29-2.62-50.07-7.05-73.44-17.55-14.54-6.53-27.73-15.04-38.97-26.49-3.97-4.04-6.38-8.62-8-14.05-9.12-30.69-11.94-62-10.25-93.86,.17-3.14,1.48-3.9,4.05-4.36,23.54-4.23,43.37-15.56,60.27-32.13,22.62-22.17,36.05-49.15,40.86-80.4,1.16-7.5,1.67-15.11,2.56-23.43Z"/>
  <path d="M311.42,33.45c39.22,.2,73.96,3.64,107.64,14.05,52.22,16.13,93.77,46.04,119.55,95.33,13.54,25.89,21.22,53.66,25.21,82.57,1.69,12.24,2.04,24.55,3.21,36.81,.3,3.11-.54,4.09-3.69,3.91-4.65-.26-9.33-.22-13.99-.01-2.84,.13-3.91-.62-4.41-3.68-4.24-26.01-10.93-51.34-21.61-75.54-26.05-59.02-69.5-98.06-132.04-115.13-35.95-9.81-72.53-11.43-109.47-7.81-26.18,2.56-51.45,8.59-75.48,19.49-41.82,18.97-72.24,49.65-93.15,90.22-14.4,27.93-22.8,57.74-27.85,88.58-.55,3.36-1.78,4.01-4.74,3.89-4.82-.2-9.66-.09-14.49-.04-1.88,.02-3.04-.1-2.94-2.65,1.69-42.84,9.04-84.36,29.56-122.59,19.88-37.06,49.48-63.86,87.59-81.47,22.66-10.47,46.46-17.02,71.01-21.03,21.25-3.47,42.69-4.62,60.08-4.87Z"/>
  <path class="cls-1" d="M233.06,372.18c-17.69-.17-32.03-14.58-32.05-32.21-.02-17.81,14.67-32.31,32.57-32.16,17.71,.15,32.15,14.62,32.11,32.18-.04,17.76-14.84,32.36-32.63,32.19Z"/>
  <path class="cls-1" d="M396.33,372.16c-17.76-.45-32.16-15.19-31.77-32.53,.41-18.19,15.23-32.27,33.47-31.79,17.37,.45,31.55,15.21,31.21,32.49-.35,17.97-15.14,32.28-32.91,31.83Z"/>
</svg>